<svg width="143" height="40" viewBox="0 0 143 40" fill="none" xmlns="http://www.w3.org/2000/svg">
<path d="M75.4571 14.512C77.0891 14.512 78.4011 15.016 79.3931 16.024C80.4011 17.016 80.9051 18.408 80.9051 20.2V28H77.5451V20.656C77.5451 19.616 77.2811 18.824 76.7531 18.28C76.2251 17.72 75.5051 17.44 74.5931 17.44C73.6811 17.44 72.9531 17.72 72.4091 18.28C71.8811 18.824 71.6171 19.616 71.6171 20.656V28H68.2571V20.656C68.2571 19.616 67.9931 18.824 67.4651 18.28C66.9371 17.72 66.2171 17.44 65.3051 17.44C64.3771 17.44 63.6411 17.72 63.0971 18.28C62.5691 18.824 62.3051 19.616 62.3051 20.656V28H58.9451V14.704H62.3051V16.312C62.7371 15.752 63.2891 15.312 63.9611 14.992C64.6491 14.672 65.4011 14.512 66.2171 14.512C67.2571 14.512 68.1851 14.736 69.0011 15.184C69.8171 15.616 70.4491 16.24 70.8971 17.056C71.3291 16.288 71.9531 15.672 72.7691 15.208C73.6011 14.744 74.4971 14.512 75.4571 14.512Z" fill="white"/>
<path d="M89.9975 28.216C88.7175 28.216 87.5655 27.936 86.5415 27.376C85.5175 26.8 84.7095 25.992 84.1175 24.952C83.5415 23.912 83.2535 22.712 83.2535 21.352C83.2535 19.992 83.5495 18.792 84.1415 17.752C84.7495 16.712 85.5735 15.912 86.6135 15.352C87.6535 14.776 88.8135 14.488 90.0935 14.488C91.3735 14.488 92.5335 14.776 93.5735 15.352C94.6135 15.912 95.4295 16.712 96.0215 17.752C96.6295 18.792 96.9335 19.992 96.9335 21.352C96.9335 22.712 96.6215 23.912 95.9975 24.952C95.3895 25.992 94.5575 26.8 93.5015 27.376C92.4615 27.936 91.2935 28.216 89.9975 28.216ZM89.9975 25.288C90.6055 25.288 91.1735 25.144 91.7015 24.856C92.2455 24.552 92.6775 24.104 92.9975 23.512C93.3175 22.92 93.4775 22.2 93.4775 21.352C93.4775 20.088 93.1415 19.12 92.4695 18.448C91.8135 17.76 91.0055 17.416 90.0455 17.416C89.0855 17.416 88.2775 17.76 87.6215 18.448C86.9815 19.12 86.6615 20.088 86.6615 21.352C86.6615 22.616 86.9735 23.592 87.5975 24.28C88.2375 24.952 89.0375 25.288 89.9975 25.288Z" fill="white"/>
<path d="M106.766 14.512C108.35 14.512 109.63 15.016 110.606 16.024C111.582 17.016 112.07 18.408 112.07 20.2V28H108.71V20.656C108.71 19.6 108.446 18.792 107.918 18.232C107.39 17.656 106.67 17.368 105.758 17.368C104.83 17.368 104.094 17.656 103.55 18.232C103.022 18.792 102.758 19.6 102.758 20.656V28H99.3982V14.704H102.758V16.36C103.206 15.784 103.774 15.336 104.462 15.016C105.166 14.68 105.934 14.512 106.766 14.512Z" fill="white"/>
<path d="M127.625 21.064C127.625 21.544 127.593 21.976 127.529 22.36H117.809C117.889 23.32 118.225 24.072 118.817 24.616C119.409 25.16 120.137 25.432 121.001 25.432C122.249 25.432 123.137 24.896 123.665 23.824H127.289C126.905 25.104 126.169 26.16 125.081 26.992C123.993 27.808 122.657 28.216 121.073 28.216C119.793 28.216 118.641 27.936 117.617 27.376C116.609 26.8 115.817 25.992 115.241 24.952C114.681 23.912 114.401 22.712 114.401 21.352C114.401 19.976 114.681 18.768 115.241 17.728C115.801 16.688 116.585 15.888 117.593 15.328C118.601 14.768 119.761 14.488 121.073 14.488C122.337 14.488 123.465 14.76 124.457 15.304C125.465 15.848 126.241 16.624 126.785 17.632C127.345 18.624 127.625 19.768 127.625 21.064ZM124.145 20.104C124.129 19.24 123.817 18.552 123.209 18.04C122.601 17.512 121.857 17.248 120.977 17.248C120.145 17.248 119.441 17.504 118.865 18.016C118.305 18.512 117.961 19.208 117.833 20.104H124.145Z" fill="white"/>
<path d="M142.798 14.704L134.566 34.288H130.99L133.87 27.664L128.542 14.704H132.31L135.742 23.992L139.222 14.704H142.798Z" fill="white"/>
<path d="M34.1422 5.85781C30.3647 2.08031 25.3422 0 20 0C14.6578 0 9.63531 2.08031 5.85781 5.85781C2.08031 9.63531 0 14.6578 0 20C0 25.3422 2.08039 30.3646 5.85781 34.1422C9.63523 37.9198 14.6578 40 20 40C25.3422 40 30.3647 37.9197 34.1422 34.1422C37.9197 30.3647 40 25.3422 40 20C40 14.6578 37.9196 9.63539 34.1422 5.85781Z" fill="#33CC95"/>
<g clip-path="url(#clip0)">
<path d="M20.5714 8V33.1429" stroke="white" stroke-width="2" stroke-linecap="round" stroke-linejoin="round"/>
<path d="M26.2857 12.5714H17.7143C16.6534 12.5714 15.636 12.9929 14.8859 13.743C14.1357 14.4931 13.7143 15.5106 13.7143 16.5714C13.7143 17.6323 14.1357 18.6497 14.8859 19.3999C15.636 20.15 16.6534 20.5714 17.7143 20.5714H23.4286C24.4894 20.5714 25.5069 20.9929 26.257 21.743C27.0072 22.4932 27.4286 23.5106 27.4286 24.5714C27.4286 25.6323 27.0072 26.6497 26.257 27.3999C25.5069 28.15 24.4894 28.5714 23.4286 28.5714H13.7143" stroke="white" stroke-width="2" stroke-linecap="round" stroke-linejoin="round"/>
</g>
<defs>
<clipPath id="clip0">
<rect width="27.4286" height="27.4286" fill="white" transform="translate(6.85715 6.85714)"/>
</clipPath>
</defs>
</svg>
